<svg width="422" height="57" viewBox="0 0 422 57" fill="none" xmlns="http://www.w3.org/2000/svg">
<path d="M25.0396 25.7052C25.0396 29.1032 24.4066 31.9282 23.1407 34.1802C21.8748 36.4322 20.0891 38.1245 17.7838 39.2572C15.4918 40.3766 12.7934 40.9362 9.68858 40.9362H0.234131V11.7134H10.3482C13.493 11.7134 16.1581 12.2531 18.3435 13.3324C20.5289 14.4118 22.1879 15.9909 23.3206 18.0696C24.4666 20.1484 25.0396 22.6936 25.0396 25.7052ZM16.8444 25.985C16.8444 24.2127 16.6045 22.7469 16.1248 21.5876C15.6584 20.4149 14.9522 19.5421 14.006 18.9691C13.0599 18.3828 11.8673 18.0896 10.4281 18.0896H8.1295V34.46H9.88846C12.2871 34.46 14.046 33.7671 15.1654 32.3812C16.2847 30.9821 16.8444 28.85 16.8444 25.985Z" fill="#0035E9"/>
<path d="M47.6463 40.9362H30.2965V11.7134H47.6463V18.0497H38.1918V22.647H46.9467V28.9832H38.1918V34.5H47.6463V40.9362Z" fill="#0035E9"/>
<path d="M65.4958 40.9362L59.5193 19.8886H59.3394C59.3927 20.4349 59.446 21.1745 59.4993 22.1073C59.566 23.0401 59.6259 24.0461 59.6792 25.1255C59.7325 26.2049 59.7592 27.2443 59.7592 28.2437V40.9362H52.7633V11.7134H63.2771L69.3735 32.4612H69.5335L75.5099 11.7134H86.0438V40.9362H78.788V28.1237C78.788 27.2043 78.8013 26.2182 78.828 25.1655C78.868 24.0994 78.9079 23.1 78.9479 22.1672C79.0012 21.2211 79.0479 20.4749 79.0878 19.9286H78.908L73.0114 40.9362H65.4958Z" fill="#0035E9"/>
<path d="M110.27 40.9362L108.83 35.4594H99.336L97.8568 40.9362H89.1819L98.7163 11.5934H109.25L118.904 40.9362H110.27ZM107.191 28.9832L105.932 24.1861C105.799 23.6664 105.606 22.9268 105.352 21.9674C105.099 20.9946 104.846 19.9952 104.593 18.9691C104.353 17.9297 104.166 17.0769 104.033 16.4106C103.913 17.0769 103.74 17.9031 103.514 18.8892C103.3 19.8619 103.074 20.828 102.834 21.7875C102.607 22.7469 102.407 23.5464 102.234 24.1861L100.975 28.9832H107.191Z" fill="#0035E9"/>
<path d="M149.906 40.9362H139.552L128.879 20.3483H128.699C128.765 20.9746 128.825 21.7275 128.879 22.607C128.932 23.4865 128.979 24.3859 129.019 25.3054C129.059 26.2115 129.079 27.031 129.079 27.764V40.9362H122.083V11.7134H132.397L143.03 32.0215H143.15C143.11 31.3818 143.07 30.6423 143.03 29.8028C142.99 28.9499 142.95 28.0904 142.91 27.2243C142.884 26.3581 142.87 25.5919 142.87 24.9256V11.7134H149.906V40.9362Z" fill="#0035E9"/>
<path d="M181.028 25.7052C181.028 29.1032 180.395 31.9282 179.129 34.1802C177.863 36.4322 176.078 38.1245 173.772 39.2572C171.48 40.3766 168.782 40.9362 165.677 40.9362H156.223V11.7134H166.337C169.481 11.7134 172.147 12.2531 174.332 13.3324C176.517 14.4118 178.176 15.9909 179.309 18.0696C180.455 20.1484 181.028 22.6936 181.028 25.7052ZM172.833 25.985C172.833 24.2127 172.593 22.7469 172.113 21.5876C171.647 20.4149 170.941 19.5421 169.994 18.9691C169.048 18.3828 167.856 18.0896 166.417 18.0896H164.118V34.46H165.877C168.275 34.46 170.034 33.7671 171.154 32.3812C172.273 30.9821 172.833 28.85 172.833 25.985Z" fill="#0035E9"/>
<path d="M211.124 12.1328C214.828 12.1328 217.6 12.939 219.439 14.5514C221.291 16.1638 222.217 18.4558 222.217 21.4274C222.217 22.7599 222.024 24.0392 221.637 25.2651C221.264 26.491 220.645 27.5837 219.779 28.5432C218.926 29.5026 217.786 30.2622 216.361 30.8218C214.948 31.3815 213.202 31.6613 211.124 31.6613H208.905V41.3557H201.01V12.1328H211.124ZM210.944 18.5091H208.905V25.2251H210.464C211.144 25.2251 211.777 25.1119 212.363 24.8853C212.949 24.6455 213.416 24.2657 213.762 23.746C214.122 23.213 214.302 22.5067 214.302 21.6272C214.302 20.7078 214.029 19.9615 213.482 19.3885C212.936 18.8022 212.09 18.5091 210.944 18.5091Z" fill="#0035E9"/>
<path d="M226.874 41.3557V12.1328H234.77V34.9794H246.023V41.3557H226.874Z" fill="#0035E9"/>
<path d="M268.63 41.3557L267.191 35.8789H257.696L256.217 41.3557H247.542L257.077 12.0129H267.611L277.265 41.3557H268.63ZM265.552 29.4027L264.292 24.6055C264.159 24.0858 263.966 23.3462 263.713 22.3868C263.46 21.414 263.206 20.4146 262.953 19.3885C262.713 18.3492 262.527 17.4963 262.394 16.8301C262.274 17.4963 262.1 18.3225 261.874 19.3086C261.661 20.2814 261.434 21.2475 261.194 22.2069C260.968 23.1663 260.768 23.9659 260.595 24.6055L259.335 29.4027H265.552Z" fill="#0035E9"/>
<path d="M308.267 41.3557H297.913L287.239 20.7677H287.059C287.126 21.394 287.186 22.1469 287.239 23.0264C287.292 23.9059 287.339 24.8054 287.379 25.7248C287.419 26.631 287.439 27.4505 287.439 28.1834V41.3557H280.443V12.1328H290.757L301.391 32.4409H301.511C301.471 31.8013 301.431 31.0617 301.391 30.2222C301.351 29.3694 301.311 28.5099 301.271 27.6437C301.244 26.7775 301.231 26.0113 301.231 25.3451V12.1328H308.267V41.3557Z" fill="#0035E9"/>
<path d="M342.407 41.3557H332.053L321.379 20.7677H321.199C321.266 21.394 321.326 22.1469 321.379 23.0264C321.432 23.9059 321.479 24.8054 321.519 25.7248C321.559 26.631 321.579 27.4505 321.579 28.1834V41.3557H314.583V12.1328H324.897L335.531 32.4409H335.651C335.611 31.8013 335.571 31.0617 335.531 30.2222C335.491 29.3694 335.451 28.5099 335.411 27.6437C335.384 26.7775 335.371 26.0113 335.371 25.3451V12.1328H342.407V41.3557Z" fill="#0035E9"/>
<path d="M348.723 41.3557V12.1328H356.658V41.3557H348.723Z" fill="#0035E9"/>
<path d="M390.818 41.3557H380.464L369.791 20.7677H369.611C369.677 21.394 369.737 22.1469 369.791 23.0264C369.844 23.9059 369.89 24.8054 369.93 25.7248C369.97 26.631 369.99 27.4505 369.99 28.1834V41.3557H362.995V12.1328H373.308L383.942 32.4409H384.062C384.022 31.8013 383.982 31.0617 383.942 30.2222C383.902 29.3694 383.862 28.5099 383.822 27.6437C383.796 26.7775 383.782 26.0113 383.782 25.3451V12.1328H390.818V41.3557Z" fill="#0035E9"/>
<path d="M408.868 24.2457H421.48V39.9965C419.974 40.5161 418.249 40.9426 416.303 41.2757C414.358 41.5955 412.319 41.7554 410.187 41.7554C407.375 41.7554 404.91 41.2091 402.791 40.1164C400.672 39.0237 399.02 37.3647 397.834 35.1393C396.648 32.9006 396.055 30.0756 396.055 26.6643C396.055 23.5994 396.641 20.9543 397.814 18.7289C398.987 16.4903 400.712 14.7646 402.991 13.552C405.283 12.326 408.088 11.7131 411.406 11.7131C413.232 11.7131 414.964 11.8863 416.603 12.2327C418.242 12.5792 419.668 13.019 420.881 13.552L418.382 19.7483C417.329 19.2286 416.237 18.8422 415.104 18.589C413.971 18.3225 412.752 18.1893 411.446 18.1893C409.7 18.1893 408.295 18.5824 407.229 19.3686C406.176 20.1548 405.41 21.2075 404.93 22.5267C404.45 23.8326 404.21 25.2784 404.21 26.8642C404.21 28.6764 404.464 30.2089 404.97 31.4615C405.49 32.7007 406.242 33.6468 407.229 34.2998C408.228 34.9394 409.434 35.2592 410.846 35.2592C411.313 35.2592 411.879 35.2259 412.545 35.1593C413.225 35.0927 413.738 35.0127 414.085 34.9194V30.3421H408.868V24.2457Z" fill="#0035E9"/>
<path d="M351.519 2.92398L275.495 2.92398" stroke="url(#paint0_linear_109_3132)"/>
<circle cx="351.519" cy="2.924" r="2.924" fill="#0035E9"/>
<circle cx="2.924" cy="2.924" r="2.924" fill="#0035E9"/>
<path d="M46.7841 2.92404L2.92409 2.92404" stroke="url(#paint1_linear_109_3132)"/>
<circle cx="188.628" cy="53.9417" r="2.924" fill="#0035E9"/>
<path d="M232.488 53.9417L188.628 53.9417" stroke="url(#paint2_linear_109_3132)"/>
<circle cx="188.75" cy="53.9417" r="2.924" transform="rotate(180 188.75 53.9417)" fill="#0035E9"/>
<path d="M144.89 53.9416L188.75 53.9416" stroke="url(#paint3_linear_109_3132)"/>
<defs>
<linearGradient id="paint0_linear_109_3132" x1="275.495" y1="2.42398" x2="351.519" y2="2.42398" gradientUnits="userSpaceOnUse">
<stop stop-color="#BDCCFD"/>
<stop offset="0.65" stop-color="#0035E9"/>
</linearGradient>
<linearGradient id="paint1_linear_109_3132" x1="2.92409" y1="2.42404" x2="46.7841" y2="2.42404" gradientUnits="userSpaceOnUse">
<stop stop-color="#0035E9"/>
<stop offset="0.7" stop-color="#BDCCFD"/>
</linearGradient>
<linearGradient id="paint2_linear_109_3132" x1="188.628" y1="53.4417" x2="232.488" y2="53.4417" gradientUnits="userSpaceOnUse">
<stop stop-color="#0035E9"/>
<stop offset="0.7" stop-color="#BDCCFD"/>
</linearGradient>
<linearGradient id="paint3_linear_109_3132" x1="188.75" y1="54.4416" x2="144.89" y2="54.4416" gradientUnits="userSpaceOnUse">
<stop stop-color="#0035E9"/>
<stop offset="0.7" stop-color="#BDCCFD"/>
</linearGradient>
</defs>
</svg>
